<?xml version="1.0" encoding="utf-8"?>
<!-- Generator: Adobe Illustrator 17.1.0, SVG Export Plug-In . SVG Version: 6.00 Build 0)  -->
<!DOCTYPE svg PUBLIC "-//W3C//DTD SVG 1.1//EN" "http://www.w3.org/Graphics/SVG/1.1/DTD/svg11.dtd">
<svg version="1.1" id="Слой_4" xmlns="http://www.w3.org/2000/svg" xmlns:xlink="http://www.w3.org/1999/xlink" x="0px" y="0px"
	 viewBox="0 0 147.6 136" enable-background="new 0 0 147.6 136" xml:space="preserve">
<g>
	<path fill="#EEC42D" d="M74.7,58.4c-0.9,0-1.9-0.2-2.8-0.5L2,31.9c-1.2-0.4-2-1.6-2-2.9c0-1.3,0.8-2.5,2-2.9L72.7,0.4
		c1.4-0.5,2.9-0.5,4.3,0l68.6,26.2c1.2,0.5,1.9,1.6,1.9,2.9c0,1.3-0.8,2.5-2,2.9L77.5,57.9C76.6,58.2,75.6,58.4,74.7,58.4z M5.6,29
		l67.7,25.1c0.9,0.3,1.9,0.3,2.8,0l66-24.6L75.6,4.1c-0.5-0.2-1-0.2-1.5,0L5.6,29z"/>
</g>
<g>
	<path fill="#EEC42D" d="M73.1,98.1c-22.6,0-41-11.2-48.3-16.5c-2.5-1.8-4.1-4.9-4.1-8.3V37.5h4v35.8c0,2.1,0.9,4,2.4,5
		c7,5,24.4,15.7,45.9,15.7c14.8,0,31.5-5.1,48.1-20.5c1.2-1.1,1.9-2.9,1.9-4.7V38.3h4v30.5c0,2.9-1.2,5.7-3.2,7.6
		C106.4,92.7,88.7,98.1,73.1,98.1z"/>
</g>
<g>
	<rect x="133.7" y="34" fill="#EEC42D" width="4" height="59.2"/>
</g>
<g>
	<circle fill="#EEC42D" cx="135.4" cy="79.8" r="5"/>
</g>
<g>
	<path fill="#EEC42D" d="M45.4,136C45.4,136,45.4,136,45.4,136c-13,0-23.6-8.6-28-16.5c-0.4-0.8-0.3-1.8,0.4-2.4
		c0.6-0.6,1.6-0.7,2.4-0.3c5.1,3,8.8,4.8,12.7,4.8c5.9,0,12.7-4,25-14.9c3.7-3.2,8.3-3.9,11.4-3.9c2.9,0,5,0.5,5.1,0.6
		c0.9,0.2,1.5,1,1.5,1.9v10.1c0,0.4-0.1,0.7-0.3,1.1C65.3,132.6,53.5,136,45.4,136z M26.5,124.4c4.7,4.3,11.4,7.6,19,7.6
		c0,0,0,0,0,0c10,0,19.2-6,26.4-17.2v-7.8c-0.7-0.1-1.6-0.2-2.5-0.2c-2.5,0-6,0.5-8.8,2.9c-13.2,11.6-20.7,15.8-27.7,15.8
		C30.7,125.6,28.6,125.1,26.5,124.4z"/>
</g>
<g>
	<path fill="#EEC42D" d="M102.5,136c-8.1,0-19.9-3.4-30.1-19.6c-0.2-0.3-0.3-0.7-0.3-1.1v-10.1c0-0.9,0.6-1.7,1.5-1.9
		c0.1,0,2.2-0.6,5.1-0.6c3.2,0,7.7,0.7,11.4,3.9c12.4,10.8,19.2,14.9,25,14.9c3.9,0,7.6-1.7,12.7-4.8c0.8-0.5,1.8-0.3,2.4,0.3
		c0.6,0.6,0.8,1.6,0.4,2.4C126.1,127.4,115.4,136,102.5,136z M76,114.8C83.3,126,92.4,132,102.5,132c7.6,0,14.2-3.3,19-7.6
		c-2.1,0.8-4.2,1.2-6.4,1.2c-7,0-14.5-4.3-27.7-15.8c-2.8-2.4-6.3-2.9-8.8-2.9c-1,0-1.9,0.1-2.5,0.2V114.8z"/>
</g>
</svg>
