<?xml version="1.0" encoding="utf-8"?>
<!-- Generator: Adobe Illustrator 17.1.0, SVG Export Plug-In . SVG Version: 6.00 Build 0)  -->
<!DOCTYPE svg PUBLIC "-//W3C//DTD SVG 1.1//EN" "http://www.w3.org/Graphics/SVG/1.1/DTD/svg11.dtd">
<svg version="1.1" id="Слой_4" xmlns="http://www.w3.org/2000/svg" xmlns:xlink="http://www.w3.org/1999/xlink" x="0px" y="0px"
	 viewBox="0 0 186.9 119" enable-background="new 0 0 186.9 119" xml:space="preserve">
<g>
	<g>
		<path fill="#EEC42D" d="M120.8,106.9H31.9c-3,0-5.5-2.3-5.5-5.1V29.9c0-2.8,2.5-5.1,5.5-5.1h88.9c3,0,5.5,2.3,5.5,5.1v71.8
			C126.2,104.6,123.8,106.9,120.8,106.9z M31.9,28.8c-0.8,0-1.5,0.5-1.5,1.1v71.8c0,0.6,0.7,1.1,1.5,1.1h88.9c0.8,0,1.5-0.5,1.5-1.1
			V29.9c0-0.6-0.7-1.1-1.5-1.1H31.9z"/>
	</g>
</g>
<g>
	<path fill="#EEC42D" d="M181.3,106.9h-43.4c-3.1,0-5.6-2.5-5.6-5.5V47.7c0-3.1,2.5-5.5,5.6-5.5h22.5c1.5,0,2.9,0.6,3.9,1.6
		l20.9,21.1c1,1,1.6,2.4,1.6,3.9v32.6C186.9,104.4,184.4,106.9,181.3,106.9z M137.9,46.1c-0.9,0-1.6,0.7-1.6,1.5v53.7
		c0,0.8,0.7,1.5,1.6,1.5h43.4c0.9,0,1.6-0.7,1.6-1.5V68.7c0-0.4-0.2-0.8-0.4-1.1l-20.9-21.1c-0.3-0.3-0.7-0.5-1.1-0.5H137.9z"/>
</g>
<g>
	<g>
		<path fill="#FFFFFF" d="M2.7,56.5l24.9,32.7c1.6,2.1,4.8,1.8,6-0.6l14.1-29.1c0.7-1.4,2.3-2.1,3.8-1.9c0.9,0.1,1.8-0.1,2.6-0.7
			l5.6-4.2c0.8-0.6,1.2-1.4,1.3-2.3c0.2-1.6,1.3-2.9,2.9-3.2l32.1-5.5c2.6-0.4,3.8-3.5,2.2-5.6L73.5,3.4c-1.6-2.1-4.8-1.8-6,0.6
			L53.4,33.3c-0.7,1.4-2.3,2.2-3.8,1.9c-0.9-0.1-1.8,0.1-2.6,0.7l-5.6,4.2c-0.8,0.6-1.2,1.4-1.3,2.3c-0.2,1.6-1.3,2.9-2.9,3.2
			L4.9,50.9C2.3,51.3,1.1,54.4,2.7,56.5z"/>
		<path fill="#EEC42D" d="M30.5,92.5L30.5,92.5c-1.7,0-3.3-0.8-4.4-2.2L1.1,57.7c-1.2-1.5-1.5-3.5-0.7-5.4c0.7-1.8,2.3-3.1,4.2-3.4
			l32.2-5.4c0.8-0.1,1.2-0.9,1.2-1.5c0.2-1.4,1-2.7,2.1-3.6l5.6-4.2c1.2-0.9,2.6-1.3,4.1-1.1c0.8,0.1,1.5-0.2,1.8-0.8L65.7,3.1
			c0.9-1.9,2.8-3.1,5-3.1c1.7,0,3.3,0.8,4.4,2.2L99.9,35c1.2,1.5,1.4,3.5,0.7,5.3c-0.7,1.8-2.3,3.1-4.2,3.4l-32.1,5.5
			c-0.8,0.1-1.2,0.9-1.3,1.5c-0.2,1.4-1,2.7-2.1,3.6l-5.6,4.2c-1.2,0.9-2.7,1.3-4.1,1c-0.8-0.1-1.5,0.2-1.7,0.8L35.4,89.4
			C34.5,91.3,32.6,92.5,30.5,92.5z M49.1,37.2c-0.2,0-0.6,0.1-0.9,0.3l-5.6,4.2c-0.3,0.2-0.5,0.6-0.6,1c-0.3,2.5-2.2,4.5-4.5,4.9
			L5.3,52.9c-0.8,0.1-1.1,0.7-1.2,0.9C4,54,3.8,54.7,4.3,55.3l24.9,32.7c0.4,0.5,0.9,0.6,1.2,0.6l0,0c0.2,0,1-0.1,1.4-0.9l14.1-29.1
			c1-2.2,3.4-3.4,5.9-3c0.3,0,0.7,0,1.1-0.3l5.6-4.2c0.3-0.2,0.5-0.6,0.6-1c0.3-2.5,2.2-4.5,4.5-4.9l32.1-5.5
			c0.8-0.1,1.1-0.7,1.2-0.9c0.1-0.2,0.3-0.8-0.2-1.4L71.9,4.6C71.5,4.1,71,4,70.7,4c-0.2,0-1,0.1-1.4,0.9L55.2,34.2
			c-1,2.2-3.4,3.4-5.9,3C49.2,37.2,49.1,37.2,49.1,37.2z"/>
	</g>
	<g>
		<path fill="#EEC42D" d="M58.8,40.7c-0.5,0-0.9-0.2-1.3-0.5c-0.8-0.7-0.9-2-0.2-2.8l6.2-7c0.7-0.8,2-0.9,2.8-0.2
			c0.8,0.7,0.9,2,0.2,2.8l-6.2,7C59.9,40.5,59.4,40.7,58.8,40.7z"/>
	</g>
	<g>
		<path fill="#EEC42D" d="M60.5,43.3c-0.9,0-1.7-0.6-1.9-1.4c-0.3-1.1,0.3-2.2,1.4-2.5l8.8-2.5c1.1-0.3,2.2,0.3,2.5,1.4
			c0.3,1.1-0.3,2.2-1.4,2.5L61,43.2C60.8,43.3,60.7,43.3,60.5,43.3z"/>
	</g>
	<g>
		<path fill="#EEC42D" d="M32.3,57.4c-0.8,0-1.6-0.5-1.9-1.3c-0.4-1,0.1-2.2,1.2-2.6l8.7-3.2c1-0.4,2.2,0.1,2.6,1.2
			c0.4,1-0.1,2.2-1.2,2.6L33,57.3C32.8,57.4,32.5,57.4,32.3,57.4z"/>
	</g>
	<g>
		<path fill="#EEC42D" d="M37.2,63.8c-0.4,0-0.9-0.1-1.2-0.4c-0.9-0.7-1-1.9-0.3-2.8l5.6-7.1c0.7-0.9,1.9-1,2.8-0.3
			c0.9,0.7,1,1.9,0.3,2.8L38.8,63C38.4,63.5,37.8,63.8,37.2,63.8z"/>
	</g>
	<g>
		<path fill="#EEC42D" d="M48.8,58.8c-0.6,0-1.2-0.3-1.6-0.9l-8.6-12.3c-0.6-0.9-0.4-2.2,0.5-2.8c0.9-0.6,2.2-0.4,2.8,0.5l8.6,12.3
			c0.6,0.9,0.4,2.2-0.5,2.8C49.6,58.6,49.2,58.8,48.8,58.8z"/>
	</g>
	<g>
		<path fill="#EEC42D" d="M61.6,51.2c-0.6,0-1.2-0.3-1.6-0.8l-10.4-14c-0.7-0.9-0.5-2.1,0.4-2.8c0.9-0.7,2.1-0.5,2.8,0.4l10.4,14
			c0.7,0.9,0.5,2.1-0.4,2.8C62.4,51.1,62,51.2,61.6,51.2z"/>
	</g>
</g>
<g>
	<ellipse fill="#FFFFFF" cx="64.3" cy="105" rx="12.1" ry="12"/>
	<path fill="#EEC42D" d="M64.3,119c-7.7,0-14.1-6.3-14.1-14c0-7.7,6.3-14,14.1-14s14.1,6.3,14.1,14C78.3,112.7,72,119,64.3,119z
		 M64.3,95c-5.5,0-10.1,4.5-10.1,10c0,5.5,4.5,10,10.1,10s10.1-4.5,10.1-10C74.3,99.5,69.8,95,64.3,95z"/>
</g>
<g>
	<ellipse fill="#FFFFFF" cx="159.6" cy="105" rx="12.1" ry="12"/>
	<path fill="#EEC42D" d="M159.6,119c-7.7,0-14.1-6.3-14.1-14c0-7.7,6.3-14,14.1-14s14.1,6.3,14.1,14
		C173.7,112.7,167.3,119,159.6,119z M159.6,95c-5.5,0-10.1,4.5-10.1,10c0,5.5,4.5,10,10.1,10s10.1-4.5,10.1-10
		C169.7,99.5,165.1,95,159.6,95z"/>
</g>
<g>
	<path fill="#EEC42D" d="M168.5,71.3h-18.9c-2,0-3.5-1.8-3.5-4.1V55.4c0-2.3,1.6-4.1,3.5-4.1h9.8c1.1,0,2.1,0.5,2.7,1.5l9.1,12.5
		c0.1,0.2,0.2,0.4,0.3,0.6c0.3,0.3,0.5,0.8,0.5,1.3V68c0,0.5-0.2,0.9-0.5,1.3C170.9,70.5,169.8,71.3,168.5,71.3z M150.1,67.3h17.6
		L159,55.3h-9c0,0,0,0.1,0,0.1v11.7C150.1,67.2,150.1,67.3,150.1,67.3z"/>
</g>
</svg>
