<?xml version="1.0" encoding="utf-8"?>
<!-- Generator: Adobe Illustrator 17.1.0, SVG Export Plug-In . SVG Version: 6.00 Build 0)  -->
<!DOCTYPE svg PUBLIC "-//W3C//DTD SVG 1.1//EN" "http://www.w3.org/Graphics/SVG/1.1/DTD/svg11.dtd">
<svg version="1.1" id="Слой_3" xmlns="http://www.w3.org/2000/svg" xmlns:xlink="http://www.w3.org/1999/xlink" x="0px" y="0px"
	 viewBox="0 0 163.1 119" enable-background="new 0 0 163.1 119" xml:space="preserve">
<g>
	<path fill="#EEC42D" d="M35.5,46.4h-4V31.8c0-3.1,2.5-5.6,5.5-5.6h19.3v4H37c-0.8,0-1.5,0.7-1.5,1.6V46.4z"/>
</g>
<g>
	<path fill="#EEC42D" d="M157.6,119H37c-3,0-5.5-2.5-5.5-5.6v-23h4v23c0,0.9,0.7,1.6,1.5,1.6h120.6c0.8,0,1.5-0.7,1.5-1.6V31.8
		c0-0.9-0.7-1.6-1.5-1.6H91.8v-4h65.8c3,0,5.5,2.5,5.5,5.6v81.7C163.1,116.5,160.6,119,157.6,119z"/>
</g>
<g>
	<g>
		<path fill="#EEC42D" d="M30.7,94.6C30.7,94.6,30.7,94.6,30.7,94.6c-1.8,0-3.4-0.8-4.4-2.2L1.1,59c-1.2-1.6-1.5-3.6-0.7-5.4
			c0.7-1.8,2.3-3.1,4.2-3.4l32.5-5.5c0.8-0.1,1.2-0.9,1.3-1.5c0.2-1.5,1-2.8,2.1-3.7l5.6-4.3c1.2-0.9,2.7-1.3,4.1-1.1
			c0.8,0.1,1.5-0.2,1.8-0.8l14.2-30c0.9-2,2.9-3.2,5-3.2c1.8,0,3.4,0.8,4.4,2.2l25.1,33.5c1.2,1.6,1.4,3.6,0.7,5.4
			c-0.7,1.8-2.3,3.1-4.2,3.4L65,50.3c-0.8,0.1-1.2,0.9-1.3,1.6c-0.2,1.5-1,2.8-2.1,3.7l-5.6,4.3c-1.2,0.9-2.7,1.3-4.2,1.1
			c-0.8-0.1-1.5,0.2-1.8,0.8L35.7,91.4C34.8,93.4,32.9,94.6,30.7,94.6z M49.5,37.9c-0.2,0-0.6,0.1-0.9,0.3L43,42.5
			c-0.3,0.2-0.5,0.6-0.6,1c-0.3,2.6-2.2,4.5-4.6,4.9L5.3,54c-0.8,0.1-1.1,0.7-1.2,1c-0.1,0.3-0.3,0.9,0.2,1.6L29.5,90
			c0.4,0.5,0.9,0.6,1.2,0.6l0,0c0.2,0,1-0.1,1.4-0.9L46.4,60c1.1-2.2,3.5-3.4,6-3.1c0.3,0,0.7,0,1.1-0.3l5.6-4.3
			c0.3-0.2,0.5-0.6,0.6-1c0.3-2.6,2.2-4.5,4.6-5l32.4-5.6c0.8-0.1,1.1-0.7,1.2-1c0.1-0.3,0.3-0.9-0.2-1.6L72.6,4.6
			C72.2,4.1,71.7,4,71.4,4c-0.2,0-1,0.1-1.4,0.9l-14.2,30c-1,2.2-3.4,3.5-6,3.1C49.7,38,49.6,37.9,49.5,37.9z"/>
	</g>
	<g>
		<path fill="#EEC42D" d="M59.4,41.6c-0.5,0-0.9-0.2-1.3-0.5c-0.8-0.7-0.9-2-0.2-2.8l6.2-7.1c0.7-0.8,2-0.9,2.8-0.2
			c0.8,0.7,0.9,2,0.2,2.8l-6.2,7.1C60.5,41.3,60,41.6,59.4,41.6z"/>
	</g>
	<g>
		<path fill="#EEC42D" d="M61.1,44.2c-0.9,0-1.7-0.6-1.9-1.4c-0.3-1.1,0.3-2.2,1.4-2.5l8.9-2.6c1.1-0.3,2.2,0.3,2.5,1.4
			c0.3,1.1-0.3,2.2-1.4,2.5l-8.9,2.6C61.4,44.2,61.3,44.2,61.1,44.2z"/>
	</g>
	<g>
		<path fill="#EEC42D" d="M32.6,58.7c-0.8,0-1.6-0.5-1.9-1.3c-0.4-1,0.1-2.2,1.2-2.6l8.8-3.3c1-0.4,2.2,0.1,2.6,1.2
			c0.4,1-0.1,2.2-1.2,2.6l-8.8,3.3C33.1,58.7,32.9,58.7,32.6,58.7z"/>
	</g>
	<g>
		<path fill="#EEC42D" d="M37.5,65.2c-0.4,0-0.9-0.1-1.2-0.4c-0.9-0.7-1-1.9-0.4-2.8l5.6-7.3c0.7-0.9,1.9-1,2.8-0.4
			c0.9,0.7,1,1.9,0.4,2.8l-5.6,7.3C38.7,64.9,38.1,65.2,37.5,65.2z"/>
	</g>
	<g>
		<path fill="#EEC42D" d="M49.3,60c-0.6,0-1.3-0.3-1.6-0.9L39,46.6c-0.6-0.9-0.4-2.2,0.5-2.8c0.9-0.6,2.2-0.4,2.8,0.5L51,56.9
			c0.6,0.9,0.4,2.2-0.5,2.8C50.1,59.9,49.7,60,49.3,60z"/>
	</g>
	<g>
		<path fill="#EEC42D" d="M62.2,52.3c-0.6,0-1.2-0.3-1.6-0.8L50.1,37.2c-0.7-0.9-0.5-2.1,0.4-2.8c0.9-0.6,2.1-0.5,2.8,0.4l10.5,14.4
			c0.7,0.9,0.5,2.1-0.4,2.8C63,52.2,62.6,52.3,62.2,52.3z"/>
	</g>
</g>
<g>
	<path fill="#EEC42D" d="M145.5,107.7H50.8c-3,0-5.5-2.5-5.5-5.6V85.3c0-3.1,2.5-5.6,5.5-5.6h94.7c3,0,5.5,2.5,5.5,5.6v16.9
		C151.1,105.2,148.6,107.7,145.5,107.7z M50.8,83.7c-0.8,0-1.5,0.7-1.5,1.6v16.9c0,0.9,0.7,1.6,1.5,1.6h94.7c0.8,0,1.5-0.7,1.5-1.6
		V85.3c0-0.9-0.7-1.6-1.5-1.6H50.8z"/>
</g>
<g>
	<path fill="#EEC42D" d="M146.5,83.7h-23.6c-2.6,0-4.6-2.4-4.6-5.4V41.2c0-3,2-5.4,4.6-5.4h23.6c2.6,0,4.6,2.4,4.6,5.4v37.1
		C151.1,81.3,149.1,83.7,146.5,83.7z M146.5,39.8h-23.6c-0.1,0-0.6,0.5-0.6,1.4v37.1c0,0.9,0.4,1.4,0.6,1.4h23.6
		c0.1,0,0.6-0.5,0.6-1.4V41.2C147.1,40.3,146.6,39.9,146.5,39.8z"/>
</g>
<g>
	<path fill="#EEC42D" d="M132.2,64.4c0,1-0.9,1.8-2,1.8l0,0c-1.1,0-2-0.8-2-1.8V58c0-1,0.9-1.8,2-1.8l0,0c1.1,0,2,0.8,2,1.8V64.4z"
		/>
</g>
<g>
	<path fill="#EEC42D" d="M73.2,89.7c1,0,1.8,0.9,1.8,2l0,0c0,1.1-0.8,2-1.8,2h-6.4c-1,0-1.8-0.9-1.8-2l0,0c0-1.1,0.8-2,1.8-2H73.2z"
		/>
</g>
<g>
	<path fill="#EEC42D" d="M123.5,89.7c1,0,1.8,0.9,1.8,2l0,0c0,1.1-0.8,2-1.8,2h-6.4c-1,0-1.8-0.9-1.8-2l0,0c0-1.1,0.8-2,1.8-2H123.5
		z"/>
</g>
</svg>
