<?xml version="1.0" encoding="utf-8"?>
<!-- Generator: Adobe Illustrator 17.1.0, SVG Export Plug-In . SVG Version: 6.00 Build 0)  -->
<!DOCTYPE svg PUBLIC "-//W3C//DTD SVG 1.1//EN" "http://www.w3.org/Graphics/SVG/1.1/DTD/svg11.dtd">
<svg version="1.1" id="Слой_1" xmlns="http://www.w3.org/2000/svg" xmlns:xlink="http://www.w3.org/1999/xlink" x="0px" y="0px"
	 viewBox="0 0 1.7 1.7" enable-background="new 0 0 1.7 1.7" xml:space="preserve">
<g>
	<path fill="#2E2D2D" d="M1.7,0c0.1,0.1,0.1,0.2,0,0.2L0.3,1.7C0.2,1.7,0.1,1.7,0,1.7l0,0C0,1.6,0,1.5,0.1,1.4l1.4-1.4
		C1.5,0,1.6,0,1.7,0L1.7,0z"/>
	<path fill="#2E2D2D" d="M0,0C0,0.1,0,0.2,0.1,0.3l1.4,1.4c0.1,0.1,0.2,0.1,0.2,0l0,0c0.1-0.1,0.1-0.2,0-0.2L0.3,0.1
		C0.2,0,0.1,0,0,0L0,0z"/>
</g>
</svg>
