<?xml version="1.0" encoding="utf-8"?>
<!-- Generator: Adobe Illustrator 17.1.0, SVG Export Plug-In . SVG Version: 6.00 Build 0)  -->
<!DOCTYPE svg PUBLIC "-//W3C//DTD SVG 1.1//EN" "http://www.w3.org/Graphics/SVG/1.1/DTD/svg11.dtd">
<svg version="1.1" id="Слой_2" xmlns="http://www.w3.org/2000/svg" xmlns:xlink="http://www.w3.org/1999/xlink" x="0px" y="0px"
	 viewBox="0 0 175.2 119" enable-background="new 0 0 175.2 119" xml:space="preserve">
<g>
	<path fill="#EEC42D" d="M105.8,101.6H5.5c-3,0-5.5-2.5-5.5-5.5V15.9c0-3,2.5-5.5,5.5-5.5h119.6c3,0,5.5,2.5,5.5,5.5v14.7h-4V15.9
		c0-0.8-0.7-1.5-1.5-1.5H5.5c-0.8,0-1.5,0.7-1.5,1.5v80.2c0,0.8,0.7,1.5,1.5,1.5h100.3V101.6z"/>
</g>
<g>
	<g>
		<path fill="#EEC42D" d="M20.7,70.2h-6.1c-3,0-5.5-2.5-5.5-5.5v-6.1c0-3,2.5-5.5,5.5-5.5h6.1c3,0,5.5,2.5,5.5,5.5v6.1
			C26.1,67.8,23.7,70.2,20.7,70.2z M14.5,57.1c-0.8,0-1.5,0.7-1.5,1.5v6.1c0,0.8,0.7,1.5,1.5,1.5h6.1c0.8,0,1.5-0.7,1.5-1.5v-6.1
			c0-0.8-0.7-1.5-1.5-1.5H14.5z"/>
	</g>
	<g>
		<path fill="#EEC42D" d="M41.2,70.2h-6.1c-3,0-5.5-2.5-5.5-5.5v-6.1c0-3,2.5-5.5,5.5-5.5h6.1c3,0,5.5,2.5,5.5,5.5v6.1
			C46.7,67.8,44.2,70.2,41.2,70.2z M35.1,57.1c-0.8,0-1.5,0.7-1.5,1.5v6.1c0,0.8,0.7,1.5,1.5,1.5h6.1c0.8,0,1.5-0.7,1.5-1.5v-6.1
			c0-0.8-0.7-1.5-1.5-1.5H35.1z"/>
	</g>
	<g>
		<path fill="#EEC42D" d="M61.7,70.2h-6.1c-3,0-5.5-2.5-5.5-5.5v-6.1c0-3,2.5-5.5,5.5-5.5h6.1c3,0,5.5,2.5,5.5,5.5v6.1
			C67.2,67.8,64.7,70.2,61.7,70.2z M55.6,57.1c-0.8,0-1.5,0.7-1.5,1.5v6.1c0,0.8,0.7,1.5,1.5,1.5h6.1c0.8,0,1.5-0.7,1.5-1.5v-6.1
			c0-0.8-0.7-1.5-1.5-1.5H55.6z"/>
	</g>
	<g>
		<path fill="#EEC42D" d="M82.4,70.2h-6.1c-3,0-5.5-2.5-5.5-5.5v-6.1c0-3,2.5-5.5,5.5-5.5h6.1c3,0,5.5,2.5,5.5,5.5v6.1
			C87.9,67.8,85.4,70.2,82.4,70.2z M76.3,57.1c-0.8,0-1.5,0.7-1.5,1.5v6.1c0,0.8,0.7,1.5,1.5,1.5h6.1c0.8,0,1.5-0.7,1.5-1.5v-6.1
			c0-0.8-0.7-1.5-1.5-1.5H76.3z"/>
	</g>
	<g>
		<path fill="#EEC42D" d="M20.7,90.5h-6.1c-3,0-5.5-2.5-5.5-5.5V79c0-3,2.5-5.5,5.5-5.5h6.1c3,0,5.5,2.5,5.5,5.5v6.1
			C26.1,88.1,23.7,90.5,20.7,90.5z M14.5,77.5c-0.8,0-1.5,0.7-1.5,1.5v6.1c0,0.8,0.7,1.5,1.5,1.5h6.1c0.8,0,1.5-0.7,1.5-1.5V79
			c0-0.8-0.7-1.5-1.5-1.5H14.5z"/>
	</g>
	<g>
		<path fill="#EEC42D" d="M41.2,90.5h-6.1c-3,0-5.5-2.5-5.5-5.5V79c0-3,2.5-5.5,5.5-5.5h6.1c3,0,5.5,2.5,5.5,5.5v6.1
			C46.7,88.1,44.2,90.5,41.2,90.5z M35.1,77.5c-0.8,0-1.5,0.7-1.5,1.5v6.1c0,0.8,0.7,1.5,1.5,1.5h6.1c0.8,0,1.5-0.7,1.5-1.5V79
			c0-0.8-0.7-1.5-1.5-1.5H35.1z"/>
	</g>
	<g>
		<path fill="#EEC42D" d="M61.7,90.5h-6.1c-3,0-5.5-2.5-5.5-5.5V79c0-3,2.5-5.5,5.5-5.5h6.1c3,0,5.5,2.5,5.5,5.5v6.1
			C67.2,88.1,64.7,90.5,61.7,90.5z M55.6,77.5c-0.8,0-1.5,0.7-1.5,1.5v6.1c0,0.8,0.7,1.5,1.5,1.5h6.1c0.8,0,1.5-0.7,1.5-1.5V79
			c0-0.8-0.7-1.5-1.5-1.5H55.6z"/>
	</g>
	<g>
		<path fill="#EEC42D" d="M82.4,90.5h-6.1c-3,0-5.5-2.5-5.5-5.5V79c0-3,2.5-5.5,5.5-5.5h6.1c3,0,5.5,2.5,5.5,5.5v6.1
			C87.9,88.1,85.4,90.5,82.4,90.5z M76.3,77.5c-0.8,0-1.5,0.7-1.5,1.5v6.1c0,0.8,0.7,1.5,1.5,1.5h6.1c0.8,0,1.5-0.7,1.5-1.5V79
			c0-0.8-0.7-1.5-1.5-1.5H76.3z"/>
	</g>
	<g>
		<path fill="#EEC42D" d="M38.1,65.3c-0.6,0-1.2-0.3-1.6-0.8L25.9,50.9c-0.7-0.9-0.5-2.1,0.3-2.8c0.9-0.7,2.1-0.5,2.8,0.3l8.7,11.1
			l9.5-18.9c0.5-1,1.7-1.4,2.7-0.9c1,0.5,1.4,1.7,0.9,2.7L39.9,64.2c-0.3,0.6-0.9,1-1.6,1.1C38.2,65.3,38.2,65.3,38.1,65.3z"/>
	</g>
</g>
<g>
	<g>
		<path fill="#EEC42D" d="M18.4,23.2c-1.1,0-2-0.9-2-2V2c0-1.1,0.9-2,2-2s2,0.9,2,2v19.2C20.4,22.3,19.5,23.2,18.4,23.2z"/>
	</g>
	<g>
		<path fill="#EEC42D" d="M18.1,34.8c-4.1,0-7.5-3.3-7.5-7.4s3.3-7.4,7.5-7.4c4.1,0,7.5,3.3,7.5,7.4S22.3,34.8,18.1,34.8z
			 M18.1,23.9c-1.9,0-3.5,1.5-3.5,3.4s1.6,3.4,3.5,3.4s3.5-1.5,3.5-3.4S20.1,23.9,18.1,23.9z"/>
	</g>
	<g>
		<path fill="#EEC42D" d="M41.9,23.2c-1.1,0-2-0.9-2-2V2c0-1.1,0.9-2,2-2s2,0.9,2,2v19.2C43.9,22.3,43,23.2,41.9,23.2z"/>
	</g>
	<g>
		<path fill="#EEC42D" d="M41.7,34.8c-4.1,0-7.5-3.3-7.5-7.4s3.3-7.4,7.5-7.4c4.1,0,7.5,3.3,7.5,7.4S45.8,34.8,41.7,34.8z
			 M41.7,23.9c-1.9,0-3.5,1.5-3.5,3.4s1.5,3.4,3.5,3.4s3.5-1.5,3.5-3.4S43.6,23.9,41.7,23.9z"/>
	</g>
	<g>
		<path fill="#EEC42D" d="M65.5,23.2c-1.1,0-2-0.9-2-2V2c0-1.1,0.9-2,2-2s2,0.9,2,2v19.2C67.5,22.3,66.6,23.2,65.5,23.2z"/>
	</g>
	<g>
		<path fill="#EEC42D" d="M65.3,34.8c-4.1,0-7.5-3.3-7.5-7.4s3.3-7.4,7.5-7.4s7.5,3.3,7.5,7.4S69.4,34.8,65.3,34.8z M65.3,23.9
			c-1.9,0-3.5,1.5-3.5,3.4s1.5,3.4,3.5,3.4s3.5-1.5,3.5-3.4S67.2,23.9,65.3,23.9z"/>
	</g>
	<g>
		<path fill="#EEC42D" d="M89.1,23.2c-1.1,0-2-0.9-2-2V2c0-1.1,0.9-2,2-2s2,0.9,2,2v19.2C91.1,22.3,90.2,23.2,89.1,23.2z"/>
	</g>
	<g>
		<path fill="#EEC42D" d="M88.9,34.8c-4.1,0-7.5-3.3-7.5-7.4s3.3-7.4,7.5-7.4c4.1,0,7.5,3.3,7.5,7.4S93,34.8,88.9,34.8z M88.9,23.9
			c-1.9,0-3.5,1.5-3.5,3.4s1.6,3.4,3.5,3.4s3.5-1.5,3.5-3.4S90.8,23.9,88.9,23.9z"/>
	</g>
	<g>
		<path fill="#EEC42D" d="M112.6,23.2c-1.1,0-2-0.9-2-2V2c0-1.1,0.9-2,2-2s2,0.9,2,2v19.2C114.6,22.3,113.7,23.2,112.6,23.2z"/>
	</g>
	<g>
		<path fill="#EEC42D" d="M112.4,34.8c-4.1,0-7.5-3.3-7.5-7.4s3.3-7.4,7.5-7.4c4.1,0,7.5,3.3,7.5,7.4S116.5,34.8,112.4,34.8z
			 M112.4,23.9c-1.9,0-3.5,1.5-3.5,3.4s1.5,3.4,3.5,3.4s3.5-1.5,3.5-3.4S114.3,23.9,112.4,23.9z"/>
	</g>
</g>
<g>
	<path fill="#EEC42D" d="M133.6,119c-13.5,0-25.7-9.8-31.6-25.1c-4.1,0.4-8.1-4.7-9.3-11.7c-0.6-3.2-0.5-6.4,0.2-9
		c0.9-3,2.6-4.9,4.8-5.3c0.3-0.1,0.6-0.1,0.9-0.1c2.3-22.3,17.3-39.3,35-39.3c17.7,0,32.7,17.1,35,39.4c0.4,0,0.8,0,1.2,0.1
		c2.2,0.4,4,2.3,4.8,5.3c0.7,2.6,0.8,5.7,0.2,9c-1.2,6.8-5,11.7-8.9,11.7c0,0,0,0,0,0c-0.2,0-0.5,0-0.7-0.1
		C159.3,109.2,147,119,133.6,119z M104.2,88.2l0.9,2.5c5.1,14.8,16.3,24.3,28.5,24.3c12.3,0,23.6-9.6,28.6-24.5l0.9-2.8l2.2,1.9
		c0.2,0.1,0.3,0.2,0.5,0.3c1.4,0.3,4.1-3,5.1-8.4c0.5-2.6,0.4-5.2-0.1-7.2c-0.4-1.4-1.1-2.4-1.7-2.5c-0.3-0.1-0.7,0.1-1.2,0.4
		l-3,2.1l-0.2-3.6c-1.2-21.4-14.9-38.2-31.2-38.2c-16.2,0-30,16.7-31.2,38l-0.2,3.3l-2.8-1.7c-0.4-0.2-0.7-0.3-1-0.3
		c-0.6,0.1-1.3,1.1-1.7,2.5c-0.6,1.9-0.6,4.6-0.1,7.2c0.9,5.2,3.5,8.4,5,8.4c0,0,0.1,0,0.1,0c0.1,0,0.2-0.1,0.4-0.2L104.2,88.2z"/>
</g>
<g>
	<circle fill="#EEC42D" cx="122.5" cy="74.2" r="4"/>
</g>
<g>
	<circle fill="#EEC42D" cx="145" cy="74.2" r="4"/>
</g>
<g>
	<path fill="#EEC42D" d="M133.7,108c-5.5,0-11-4.2-16.3-12.5c-0.4-0.6-0.4-1.4-0.1-2c0.4-0.6,1-1,1.8-1h27.6c0.7,0,1.3,0.3,1.7,0.9
		c0.4,0.6,0.4,1.3,0.2,1.9C148.4,95.6,143.1,108,133.7,108z M123,96.3c3.7,5,7.4,7.6,10.8,7.6c4.4,0,7.9-4.5,9.7-7.6H123z"/>
</g>
<g>
	<path fill="#EEC42D" d="M100.5,70.2c-0.9,0-1.7-0.6-1.9-1.5c-0.3-1.1,0.3-2.2,1.4-2.5c0.2,0,18.1-5.1,22.2-18.4
		c0.2-0.8,0.9-1.3,1.7-1.4c0.8-0.1,1.6,0.3,2,1c4.5,8,13.2,11,19.6,12.2c9.1,1.6,16.9,0.1,18.4-1.1c0.8-0.7,2.1-0.6,2.8,0.3
		c0.7,0.8,0.6,2.1-0.3,2.8c-2.8,2.3-12.2,3.7-21.7,2c-6.4-1.2-14.7-4-20.2-10.9c-6.4,12.6-22.7,17.3-23.5,17.5
		C100.9,70.2,100.7,70.2,100.5,70.2z"/>
</g>
</svg>
